<?xml version="1.0" standalone="no"?><!DOCTYPE svg PUBLIC "-//W3C//DTD SVG 1.1//EN" "http://www.w3.org/Graphics/SVG/1.1/DTD/svg11.dtd"><svg xmlns="http://www.w3.org/2000/svg" width="600" height="400" viewBox="0 0 600 400"><g class="sankey" transform="translate(130,25)"><g class="groups"><g class="group" transform="translate(0,36.5)" style="display: inline;"><rect x="-10" y="-20" width="21" height="322.00000000000006" style="fill: rgb(238, 238, 238); stroke: rgb(187, 187, 187); stroke-width: 0.5;"/><text x="-10" y="-25" style="fill: rgb(153, 153, 153);">Known annotations</text></g><g class="group" transform="translate(169.5,36.5)" style="display: inline;"><rect x="-10" y="-20" width="21" height="322" style="fill: rgb(238, 238, 238); stroke: rgb(187, 187, 187); stroke-width: 0.5;"/><text x="-10" y="-25" style="fill: rgb(153, 153, 153);">AlphaMissense</text></g><g class="group" transform="translate(339,36.5)" style="display: inline;"><rect x="-10" y="-20" width="21" height="322" style="fill: rgb(238, 238, 238); stroke: rgb(187, 187, 187); stroke-width: 0.5;"/><text x="-10" y="-25" style="fill: rgb(153, 153, 153);">Structural mechanisms</text></g></g><g class="links"><g class="link" style="opacity: 0.8;"><path d="M1,321.95679573261975 A58.65801426917171 58.65801426917171 0.6216293942813226 0 0 35.16011154831234,310.9836786218693 L134.17516741658554,240.05209325668497 A60.65801426917171 60.65801426917171 0.6216293942813226 0 1 169.5,228.7048374285754 L169.5,230.7048374285754 A58.65801426917171 58.65801426917171 0.6216293942813226 0 0 135.33988845168764,241.67795453932584 L36.324832583414455,312.6095399045102 A60.65801426917171 60.65801426917171 0.6216293942813226 0 1 1,323.95679573261975 Z" style="fill: rgb(192, 192, 192);"/><title>Pathogenic → ambiguous
ambiguous
2.96k</title><text class="label" dy="0.35em" x="5" y="322.95679573261975"/></g><g class="link" style="opacity: 0.8;"><path d="M1,321.4380158926248 A49.557743721626146 49.557743721626146 0.9603432433320946 0 0 41.607039193428996,300.28869223832544 L127.25418405266852,177.8645320822168 A51.557743721626146 51.557743721626146 0.9603432433320946 0 1 169.5,155.86168596841657 L169.5,157.86168596841657 A49.557743721626146 49.557743721626146 0.9603432433320946 0 0 128.892960806571,179.01100962271587 L43.24581594733149,301.4351697788245 A51.557743721626146 51.557743721626146 0.9603432433320946 0 1 1,323.4380158926248 Z" style="fill: rgb(173, 216, 230);"/><title>Pathogenic → benign
benign
3.58k</title><text class="label" dy="0.35em" x="5" y="322.4380158926248"/></g><g class="link" style="opacity: 0.8;"><path d="M1,47.18242981076397 A55.18568092276456 55.18568092276456 0.9649829577241293 0 1 46.364793666656794,70.94367956141602 L128.7530094933371,189.8805790416584 A49.56818349460228 49.56818349460228 0.9649829577241293 0 0 169.5,211.2231079007259 L169.5,213.2231079007259 A51.56818349460228 51.56818349460228 0.9649829577241293 0 1 127.1089310690753,191.0194408132869 L44.72071524239499,72.08254133304453 A53.18568092276456 53.18568092276456 0.9649829577241293 0 0 1,49.18242981076397 Z" style="fill: rgb(192, 192, 192);"/><title>Benign → ambiguous
ambiguous
4.12k</title><text class="label" dy="0.35em" x="5" y="48.18242981076397"/></g><g class="link" style="opacity: 0.8;"><path d="M1,47.90895974123592 A54.45915099229262 54.45915099229262 1.1819667504122764 0 1 51.39396095353033,81.72234055619228 L120.95674586195646,251.51713321266794 A52.45915099229262 52.45915099229262 1.1819667504122764 0 0 169.5,284.088725266733 L169.5,286.088725266733 A54.45915099229262 54.45915099229262 1.1819667504122764 0 1 119.10603904646966,252.27534445177662 L49.54325413804353,82.48055179530095 A52.45915099229262 52.45915099229262 1.1819667504122764 0 0 1,49.90895974123592 Z" style="fill: rgb(240, 128, 128);"/><title>Benign → pathogenic
pathogenic
5.03k</title><text class="label" dy="0.35em" x="5" y="48.90895974123592"/></g><g class="link" style="opacity: 0.8;"><path d="M170.5,228.27465105475247 A60.0689333612451 60.0689333612451 0.6316203630756596 0 1 205.9678988425246,239.86364106976265 L304.7130077212469,312.1055062858984 A58.0689333612451 58.0689333612451 0.6316203630756596 0 0 339,323.3086399400068 L339,325.3086399400068 A60.0689333612451 60.0689333612451 0.6316203630756596 0 1 303.53210115747544,313.7196499249966 L204.78699227875305,241.4777847088609 A58.0689333612451 58.0689333612451 0.6316203630756596 0 0 170.5,230.27465105475247 Z" style="fill: rgb(0, 128, 0);"/><title>ambiguous → Pockets
ambiguous
8.37k</title><text class="label" dy="0.35em" x="174.5" y="229.27465105475247"/></g><g class="link" style="opacity: 0.8;"><path d="M170.5,226.86557038758932 A98.0902939434987 98.0902939434987 0.3358207068157135 0 1 202.82508185834973,232.3448776784615 L307.3340064277343,268.82283416870956 A96.0902939434987 96.0902939434987 0.3358207068157135 0 0 339,274.1904217965939 L339,276.1904217965939 A98.0902939434987 98.0902939434987 0.3358207068157135 0 1 306.67491814165027,270.7111145057217 L202.16599357226568,234.2331580154737 A96.0902939434987 96.0902939434987 0.3358207068157135 0 0 170.5,228.86557038758932 Z" style="fill: rgb(255, 165, 0);"/><title>ambiguous → Interface
ambiguous
9.38k</title><text class="label" dy="0.35em" x="174.5" y="227.86557038758932"/></g><g class="link" style="opacity: 0.8;"><path d="M170.5,324.97340847560247 A0 0 0 0 1 170.5,324.97340847560247 L339,324.9734084756025 A0 0 0 0 0 339,324.9734084756025 L339,328.49999999999994 A0 0 0 0 1 339,328.49999999999994 L170.5,328.4999999999999 A0 0 0 0 0 170.5,328.4999999999999 Z" style="fill: rgb(0, 128, 0);"/><title>pathogenic → Pockets
pathogenic
22.2k</title><text class="label" dy="0.35em" x="174.5" y="326.7367042378012"/></g><g class="link" style="opacity: 0.8;"><path d="M170.5,223.16964037151226 A331.4009739930356 331.4009739930356 0.09325227730546493 0 0 201.35912501661858,221.72975494308508 L307.7729114591748,211.77756223573323 A335.3525918775453 335.3525918775453 0.09325227730546493 0 1 339,210.3205076453025 L339,214.27212552981214 A331.4009739930356 331.4009739930356 0.09325227730546493 0 0 308.1408749833814,215.71201095823932 L201.7270885408252,225.66420366559117 A335.3525918775453 335.3525918775453 0.09325227730546493 0 1 170.5,227.1212582560219 Z" style="fill: rgb(255, 0, 0);"/><title>ambiguous → Stability
ambiguous
24.9k</title><text class="label" dy="0.35em" x="174.5" y="225.14544931376707"/></g><g class="link" style="opacity: 0.8;"><path d="M170.5,320.9117632218146 A99.40490014673311 99.40490014673311 0.31989126609715113 0 0 201.7591973782222,315.86891451765734 L306.4635640703476,281.1836314535998 A103.46654540052096 103.46654540052096 0.31989126609715113 0 1 339,275.9347339281613 L339,279.9963791819492 A99.40490014673311 99.40490014673311 0.31989126609715113 0 0 307.7408026217778,285.03922788610646 L203.03643592965238,319.724510950164 A103.46654540052096 103.46654540052096 0.31989126609715113 0 1 170.5,324.9734084756025 Z" style="fill: rgb(255, 165, 0);"/><title>pathogenic → Interface
pathogenic
25.6k</title><text class="label" dy="0.35em" x="174.5" y="322.9425858487086"/></g><g class="link" style="opacity: 0.8;"><path d="M1,323.19137789439253 A0 0 0 0 0 1,323.19137789439253 L169.5,323.1913778943925 A0 0 0 0 1 169.5,323.1913778943925 L169.5,328.49999999999994 A0 0 0 0 0 169.5,328.49999999999994 L1,328.5 A0 0 0 0 1 1,328.5 Z" style="fill: rgb(240, 128, 128);"/><title>Pathogenic → pathogenic
pathogenic
33.4k</title><text class="label" dy="0.35em" x="5" y="325.84568894719627"/></g><g class="link" style="opacity: 0.8;"><path d="M170.5,143.62998188721005 A60.49576655041227 60.49576655041227 0.7941547686142089 0 1 213.64990296562488,161.72499791856737 L303.54694683213444,253.21037665008672 A49.7048540213674 49.7048540213674 0.7941547686142089 0 0 339,268.0777001280597 L339,274.44610966502654 A56.0732635583342 56.0732635583342 0.7941547686142089 0 1 299.0045421444199,257.6739178096996 L209.1074982779103,166.1885390781803 A54.127357013445476 54.127357013445476 0.7941547686142089 0 0 170.5,149.99839142417684 Z" style="fill: rgb(255, 165, 0);"/><title>benign → Interface
benign
40.1k</title><text class="label" dy="0.35em" x="174.5" y="146.81418665569345"/></g><g class="link" style="opacity: 0.8;"><path d="M170.5,149.99839142417684 A54.127357013445476 54.127357013445476 0.9638420459241142 0 1 214.95961602009908,173.25321500406145 L300.41125551789906,296.31234419849756 A46.97986479098353 46.97986479098353 0.9638420459241142 0 0 339,316.4963791819491 L339,323.643871404411 A54.127357013445476 54.127357013445476 0.9638420459241142 0 1 294.5403839799009,300.3890478245265 L209.08874448210088,177.3299186300903 A46.97986479098353 46.97986479098353 0.9638420459241142 0 0 170.5,157.1458836466388 Z" style="fill: rgb(0, 128, 0);"/><title>benign → Pockets
benign
45.0k</title><text class="label" dy="0.35em" x="174.5" y="153.57213753540782"/></g><g class="link" style="opacity: 0.8;"><path d="M170.5,135.7099165350111 A77.82331952064625 77.82331952064625 0.4626893363000282 0 1 205.23692779819257,143.89262356297638 L307.7982431504498,195.05048790044822 A69.9032541684473 69.9032541684473 0.4626893363000282 0 0 339,202.40044229310357 L339,210.3205076453025 A77.82331952064625 77.82331952064625 0.4626893363000282 0 1 304.2630722018074,202.13780061733723 L201.7017568495502,150.9799362798654 A69.9032541684473 69.9032541684473 0.4626893363000282 0 0 170.5,143.62998188721005 Z" style="fill: rgb(255, 0, 0);"/><title>benign → Stability
benign
49.9k</title><text class="label" dy="0.35em" x="174.5" y="139.66994921111058"/></g><g class="link" style="opacity: 0.8;"><path d="M170.5,211.89588364663877 A61.691567179173084 61.691567179173084 0.5216264334841203 0 0 201.2403483951186,203.69151532447404 L302.64204087961167,145.41358300722462 A72.96532390404658 72.96532390404658 0.5216264334841203 0 1 339,135.7099165350111 L339,146.98367325988463 A61.691567179173084 61.691567179173084 0.5216264334841203 0 0 308.2596516048814,155.18804158204935 L206.85795912038833,213.46597389929877 A72.96532390404658 72.96532390404658 0.5216264334841203 0 1 170.5,223.1696403715123 Z" style="fill: rgb(211, 211, 211);"/><title>ambiguous → Unassigned
ambiguous
71.0k</title><text class="label" dy="0.35em" x="174.5" y="217.53276200907553"/></g><g class="link" style="opacity: 0.8;"><path d="M1,36.5 A0 0 0 0 0 1,36.5 L169.5,36.5 A0 0 0 0 0 169.5,36.5 L169.5,47.85520555667685 A0 0 0 0 0 169.5,47.85520555667685 L1,47.85520555667685 A0 0 0 0 0 1,47.85520555667685 Z" style="fill: rgb(173, 216, 230);"/><title>Benign → benign
benign
71.5k</title><text class="label" dy="0.35em" x="5" y="42.177602778338425"/></g><g class="link" style="opacity: 0.8;"><path d="M1,212.78054815113828 A991.5400384440052 991.5400384440052 0.0013775277972682964 0 0 2.3658735330846357,212.77960738660983 L168.1108188098723,212.55128897281676 A1008.4599615559948 1008.4599615559948 0.0013775277972682964 0 1 169.5,212.55033215481302 L169.5,229.4702552668026 A991.5400384440052 991.5400384440052 0.0013775277972682964 0 0 168.13412646691538,229.47119603133106 L2.3891811901276734,229.69951444512412 A1008.4599615559948 1008.4599615559948 0.0013775277972682964 0 1 1,229.70047126312787 Z" style="fill: rgb(192, 192, 192);"/><title>VUS → ambiguous
ambiguous
107k</title><text class="label" dy="0.35em" x="5" y="221.24050970713307"/></g><g class="link" style="opacity: 0.8;"><path d="M170.5,303.6061886235671 A61.04133276060079 61.04133276060079 0.6124381891084001 0 0 205.59047766964449,292.5118545926856 L298.91698262700925,226.94491921156578 A69.72606142749211 69.72606142749211 0.6124381891084001 0 1 339,214.27212552981217 L339,231.5777001280597 A52.420486829244574 52.420486829244574 0.6124381891084001 0 0 308.86533813526466,241.1051852703966 L215.53883317789985,306.67212065151637 A78.34690735884831 78.34690735884831 0.6124381891084001 0 1 170.5,320.9117632218146 Z" style="fill: rgb(255, 0, 0);"/><title>pathogenic → Stability
pathogenic
109k</title><text class="label" dy="0.35em" x="174.5" y="312.25897592269087"/></g><g class="link" style="opacity: 0.8;"><path d="M170.5,284.68941959034817 A42.12456372738181 42.12456372738181 0.8454209382547127 0 0 202.01972316640405,270.51098118894856 L293.3257961607839,167.52918637395726 A61.04133276060078 61.04133276060078 0.8454209382547127 0 1 339,146.9836732598846 L339,165.90044229310354 A42.12456372738181 42.12456372738181 0.8454209382547127 0 0 307.48027683359595,180.07888069450314 L216.1742038392161,283.06067550949444 A61.04133276060078 61.04133276060078 0.8454209382547127 0 1 170.5,303.60618862356716 Z" style="fill: rgb(211, 211, 211);"/><title>pathogenic → Unassigned
pathogenic
119k</title><text class="label" dy="0.35em" x="174.5" y="294.14780410695766"/></g><g class="link" style="opacity: 0.8;"><path d="M1,229.70047126312787 A103.56007978279276 103.56007978279276 0.39229732327389444 0 1 40.592284533803266,237.56759869302914 L144.32216593304162,280.48510597058794 A65.85673283151807 65.85673283151807 0.39229732327389444 0 0 169.5,285.4880309431178 L169.5,323.1913778943924 A103.56007978279276 103.56007978279276 0.39229732327389444 0 1 129.90771546619675,315.32425046449123 L26.177834066958372,272.4067431869324 A65.85673283151807 65.85673283151807 0.39229732327389444 0 0 1,267.4038182144026 Z" style="fill: rgb(240, 128, 128);"/><title>VUS → pathogenic
pathogenic
237k</title><text class="label" dy="0.35em" x="5" y="248.5521447387652"/></g><g class="link" style="opacity: 0.8;"><path d="M170.5,36.5 A0 0 0 0 0 170.5,36.5 L339,36.5 A0 0 0 0 0 339,36.5 L339,135.7099165350111 A0 0 0 0 0 339,135.7099165350111 L170.5,135.7099165350111 A0 0 0 0 0 170.5,135.7099165350111 Z" style="fill: rgb(211, 211, 211);"/><title>benign → Unassigned
benign
625k</title><text class="label" dy="0.35em" x="174.5" y="86.10495826750555"/></g><g class="link" style="opacity: 0.8;"><path d="M1,104.05826541762073 A29.845218613806985 29.845218613806985 0.4107638072799362 0 0 12.917485744841962,101.57562357624914 L105.7844551047639,61.12838087985006 A159.56422413336588 159.56422413336588 0.4107638072799362 0 1 169.5,47.85520555667686 L169.5,156.5774882901944 A50.841941399848345 50.841941399848345 0.4107638072799362 0 0 149.19831885927357,160.8067195331994 L56.331349499351624,201.25396222959847 A138.5675013473245 138.5675013473245 0.4107638072799362 0 1 1,212.78054815113828 Z" style="fill: rgb(173, 216, 230);"/><title>VUS → benign
benign
685k</title><text class="label" dy="0.35em" x="5" y="158.4194067843795"/></g></g><g class="nodes"><g class="node" transform="translate(0,36.5)"><title>Benign</title><line x1="0" x2="0" y1="0" y2="12.808265417620731" style="display: inline; stroke: rgb(0, 0, 0);"/><rect class="node-body" width="1" height="12.808265417620731" style="fill: none;"/><text class="node-value" dy=".35em" text-anchor="middle" transform="translate(0.5,6.404132708810366) rotate(-90)" style="display: none;"/><text class="node-title" dy=".35em" text-anchor="end" transform="translate(-4,6.404132708810366)" style="display: inline;">Benign</text><rect class="node-click-target" x="-5" y="-5" width="10" height="17.80826541762073" style="fill: none; visibility: hidden; pointer-events: all;"/></g><g class="node" transform="translate(0,104.05826541762075)"><title>VUS</title><line x1="0" x2="0" y1="0" y2="163.34555279678176" style="display: inline; stroke: rgb(0, 0, 0);"/><rect class="node-body" width="1" height="163.34555279678176" style="fill: none;"/><text class="node-value" dy=".35em" text-anchor="middle" transform="translate(0.5,81.67277639839088) rotate(-90)" style="display: none;"/><text class="node-title" dy=".35em" text-anchor="end" transform="translate(-4,81.67277639839088)" style="display: inline;">VUS</text><rect class="node-click-target" x="-5" y="-5" width="10" height="168.34555279678176" style="fill: none; visibility: hidden; pointer-events: all;"/></g><g class="node" transform="translate(0,322.1538182144026)"><title>Pathogenic</title><line x1="0" x2="0" y1="0" y2="6.34618178559748" style="display: inline; stroke: rgb(0, 0, 0);"/><rect class="node-body" width="1" height="6.34618178559748" style="fill: none;"/><text class="node-value" dy=".35em" text-anchor="middle" transform="translate(0.5,3.17309089279874) rotate(-90)" style="display: none;"/><text class="node-title" dy=".35em" text-anchor="end" transform="translate(-4,3.17309089279874)" style="display: inline;">Pathogenic</text><rect class="node-click-target" x="-5" y="-5" width="10" height="11.34618178559748" style="fill: none; visibility: hidden; pointer-events: all;"/></g><g class="node" transform="translate(169.5,36.5)"><title>benign</title><line x1="0" x2="0" y1="-5" y2="120.64588364663877" style="display: inline; stroke: rgb(0, 0, 0);"/><rect class="node-body" width="1" height="120.64588364663877" style="fill: none;"/><text class="node-value" dy=".35em" text-anchor="middle" transform="translate(0.5,60.32294182331938) rotate(-90)" style="display: none;"/><text class="node-title" dy=".35em" text-anchor="start" transform="translate(-4,-10)" style="display: inline;">benign</text><rect class="node-click-target" x="-5" y="-5" width="10" height="125.64588364663877" style="fill: none; visibility: hidden; pointer-events: all;"/></g><g class="node" transform="translate(169.5,211.89588364663877)"><title>ambiguous</title><line x1="0" x2="0" y1="-5" y2="18.0435359437094" style="display: inline; stroke: rgb(0, 0, 0);"/><rect class="node-body" width="1" height="18.0435359437094" style="fill: none;"/><text class="node-value" dy=".35em" text-anchor="middle" transform="translate(0.5,9.0217679718547) rotate(-90)" style="display: none;"/><text class="node-title" dy=".35em" text-anchor="start" transform="translate(-4,-10)" style="display: inline;">ambiguous</text><rect class="node-click-target" x="-5" y="-5" width="10" height="23.0435359437094" style="fill: none; visibility: hidden; pointer-events: all;"/></g><g class="node" transform="translate(169.5,284.68941959034817)"><title>pathogenic</title><line x1="0" x2="0" y1="-5" y2="43.810580409651834" style="display: inline; stroke: rgb(0, 0, 0);"/><rect class="node-body" width="1" height="43.810580409651834" style="fill: none;"/><text class="node-value" dy=".35em" text-anchor="middle" transform="translate(0.5,21.905290204825917) rotate(-90)" style="display: none;"/><text class="node-title" dy=".35em" text-anchor="start" transform="translate(-4,-10)" style="display: inline;">pathogenic</text><rect class="node-click-target" x="-5" y="-5" width="10" height="48.810580409651834" style="fill: none; visibility: hidden; pointer-events: all;"/></g><g class="node" transform="translate(339,36.5)"><title>Unassigned</title><line x1="0" x2="0" y1="0" y2="129.40044229310357" style="display: inline; stroke: rgb(0, 0, 0);"/><rect class="node-body" width="1" height="129.40044229310357" style="fill: none;"/><text class="node-value" dy=".35em" text-anchor="middle" transform="translate(0.5,64.70022114655178) rotate(-90)" style="display: none;"/><text class="node-title" dy=".35em" text-anchor="start" transform="translate(5,64.70022114655178)" style="display: inline;">Unassigned</text><rect class="node-click-target" x="-5" y="-5" width="10" height="134.40044229310357" style="fill: none; visibility: hidden; pointer-events: all;"/></g><g class="node" transform="translate(339,202.40044229310357)"><title>Stability</title><line x1="0" x2="0" y1="0" y2="29.177257834956123" style="display: inline; stroke: rgb(0, 0, 0);"/><rect class="node-body" width="1" height="29.177257834956123" style="fill: none;"/><text class="node-value" dy=".35em" text-anchor="middle" transform="translate(0.5,14.588628917478061) rotate(-90)" style="display: none;"/><text class="node-title" dy=".35em" text-anchor="start" transform="translate(5,14.588628917478061)" style="display: inline;">Stability</text><rect class="node-click-target" x="-5" y="-5" width="10" height="34.17725783495612" style="fill: none; visibility: hidden; pointer-events: all;"/></g><g class="node" transform="translate(339,268.0777001280597)"><title>Interface</title><line x1="0" x2="0" y1="0" y2="11.918679053889491" style="display: inline; stroke: rgb(0, 0, 0);"/><rect class="node-body" width="1" height="11.918679053889491" style="fill: none;"/><text class="node-value" dy=".35em" text-anchor="middle" transform="translate(0.5,5.959339526944746) rotate(-90)" style="display: none;"/><text class="node-title" dy=".35em" text-anchor="start" transform="translate(5,5.959339526944746)" style="display: inline;">Interface</text><rect class="node-click-target" x="-5" y="-5" width="10" height="16.91867905388949" style="fill: none; visibility: hidden; pointer-events: all;"/></g><g class="node" transform="translate(339,316.4963791819491)"><title>Pockets</title><line x1="0" x2="0" y1="0" y2="12.003620818050877" style="display: inline; stroke: rgb(0, 0, 0);"/><rect class="node-body" width="1" height="12.003620818050877" style="fill: none;"/><text class="node-value" dy=".35em" text-anchor="middle" transform="translate(0.5,6.001810409025438) rotate(-90)" style="display: none;"/><text class="node-title" dy=".35em" text-anchor="start" transform="translate(5,6.001810409025438)" style="display: inline;">Pockets</text><rect class="node-click-target" x="-5" y="-5" width="10" height="17.003620818050877" style="fill: none; visibility: hidden; pointer-events: all;"/></g></g><g class="slice-titles"/></g></svg>